<svg width="256" height="256" viewBox="0 0 256 256" xmlns="http://www.w3.org/2000/svg">
  <defs>
    <linearGradient id="chefGradient" x1="0" y1="0" x2="1" y2="1">
      <stop offset="0" stop-color="#f59e0b"></stop>
      <stop offset="1" stop-color="#f97316"></stop>
    </linearGradient>
  </defs>
  <path d="M76 200h104a8 8 0 0 0 8-8v-36a4 4 0 0 0-4-4H72a4 4 0 0 0-4 4v36a8 8 0 0 0 8 8z" fill="url(#chefGradient)"></path>
  <path d="M128 44a40 40 0 0 0-38 29 32 32 0 0 0-18 57v6h112v-6a32 32 0 0 0-18-57 40 40 0 0 0-38-29z" fill="url(#chefGradient)"></path>
</svg>
